<svg width="20" height="22" viewBox="0 0 20 22" fill="none" xmlns="http://www.w3.org/2000/svg">
<path fill-rule="evenodd" clip-rule="evenodd" d="M10.1181 0.333328C13.5959 0.333328 16.4999 2.98526 16.8147 6.44877L17.297 11.7535C17.3393 12.2192 17.6196 12.6298 18.0378 12.8389L18.0416 12.8408C18.978 13.309 19.5696 14.2662 19.5696 15.3131V15.7257C19.5696 17.068 18.4815 18.1561 17.1392 18.1561H13.0885V18.6962C13.0885 20.3367 11.7586 21.6667 10.1181 21.6667C8.47754 21.6667 7.14762 20.3367 7.14762 18.6962V18.1561H3.09701C1.75474 18.1561 0.666626 17.068 0.666626 15.7257V15.3131C0.666626 14.2662 1.25817 13.309 2.19462 12.8408L2.19841 12.8389C2.61665 12.6298 2.89691 12.2192 2.93924 11.7535L3.42149 6.44877C3.73635 2.98526 6.64031 0.333328 10.1181 0.333328ZM8.76787 18.1561V18.6962C8.76787 19.4419 9.37239 20.0464 10.1181 20.0464C10.8638 20.0464 11.4683 19.4419 11.4683 18.6962V18.1561H8.76787ZM10.1181 1.95347C7.47832 1.95347 5.27409 3.9664 5.0351 6.59535L4.55285 11.9001C4.45971 12.9245 3.84313 13.8279 2.92302 14.288C2.53169 14.4836 2.28689 14.8797 2.28689 15.313V15.7256C2.28689 16.173 2.64959 16.5357 3.09701 16.5357H17.1392C17.5866 16.5357 17.9493 16.173 17.9493 15.7256V15.313C17.9493 14.8797 17.7045 14.4836 17.317 14.2899C16.3931 13.8279 15.7765 12.9245 15.6834 11.9001L15.2011 6.59535C14.9621 3.9664 12.7579 1.95347 10.1181 1.95347Z" fill="#3D3D3D"/>
</svg>
