<svg width="22" height="16" viewBox="0 0 22 16" fill="none" xmlns="http://www.w3.org/2000/svg">
<path fill-rule="evenodd" clip-rule="evenodd" d="M0.333374 1C0.333374 0.447716 0.781089 0 1.33337 0H20.6667C21.219 0 21.6667 0.447715 21.6667 1V1.66667C21.6667 2.21895 21.219 2.66667 20.6667 2.66667H1.33338C0.78109 2.66667 0.333374 2.21895 0.333374 1.66667V1ZM0.333374 7.66667C0.333374 7.11438 0.781089 6.66667 1.33337 6.66667H20.6667C21.219 6.66667 21.6667 7.11438 21.6667 7.66667V8.33333C21.6667 8.88562 21.219 9.33333 20.6667 9.33333H1.33338C0.78109 9.33333 0.333374 8.88562 0.333374 8.33333V7.66667ZM1.33337 13.3333C0.781089 13.3333 0.333374 13.781 0.333374 14.3333V15C0.333374 15.5523 0.78109 16 1.33338 16H20.6667C21.219 16 21.6667 15.5523 21.6667 15V14.3333C21.6667 13.781 21.219 13.3333 20.6667 13.3333H1.33337Z" fill="#3D3D3D"/>
</svg>
