<svg width="22" height="21" viewBox="0 0 22 21" fill="none" xmlns="http://www.w3.org/2000/svg">
<path fill-rule="evenodd" clip-rule="evenodd" d="M21.6667 6.42175C21.6667 6.05659 21.5382 5.74058 21.2813 5.47373C21.0243 5.20688 20.7084 5.07345 20.3334 5.07345H18.0625C18.3542 4.79255 18.5868 4.45899 18.7605 4.07276C18.9341 3.68653 19.0209 3.25465 19.0209 2.77713C19.0209 2.18724 18.8334 1.63248 18.4584 1.11282C18.0834 0.593155 17.4306 0.333328 16.5 0.333328C15.8889 0.333328 15.3056 0.480797 14.75 0.77574C14.1945 1.07068 13.6806 1.42882 13.2084 1.85017C12.7361 2.27151 12.316 2.71743 11.948 3.18794C11.5799 3.65844 11.2778 4.08329 11.0417 4.4625C10.8056 4.08329 10.5 3.65844 10.125 3.18794C9.75004 2.71743 9.32296 2.27151 8.84379 1.85017C8.36462 1.42882 7.84379 1.07068 7.28129 0.77574C6.71879 0.480797 6.13199 0.333328 5.52087 0.333328C4.59031 0.333328 3.93754 0.593155 3.56254 1.11282C3.18754 1.63248 3.00004 2.18724 3.00004 2.77713C3.00004 3.25465 3.08685 3.68653 3.26046 4.07276C3.43407 4.45899 3.67365 4.79958 3.97921 5.09452H1.66671C1.29171 5.09452 0.975736 5.22443 0.718791 5.48426C0.461845 5.74409 0.333374 6.06361 0.333374 6.44282V10.4667H1.68754V19.2517C1.68754 19.6169 1.81601 19.9329 2.07296 20.1997C2.3299 20.4666 2.64587 20.6 3.02087 20.6H19C19.375 20.6 19.691 20.4666 19.948 20.1997C20.2049 19.9329 20.3334 19.6169 20.3334 19.2517V10.4667H21.6667V6.42175ZM16.5 1.68147C16.9167 1.68147 17.2188 1.77276 17.4063 1.95534C17.5938 2.13793 17.6875 2.4118 17.6875 2.77696C17.6875 3.52134 17.3473 4.09015 16.6667 4.48341C15.9861 4.87667 15.257 5.07329 14.4792 5.07329H12.2292C12.7014 4.37105 13.323 3.63019 14.0938 2.8507C14.8646 2.07121 15.6667 1.68147 16.5 1.68147ZM5.52087 1.68147C6.35421 1.68147 7.1667 2.07121 7.95837 2.8507C8.75004 3.63019 9.38198 4.37105 9.85421 5.07329H7.60421C6.82643 5.07329 6.08685 4.87316 5.38546 4.47288C4.68406 4.0726 4.33337 3.50028 4.33337 2.7559C4.33337 2.39073 4.42712 2.12037 4.61462 1.94481C4.80212 1.76925 5.10421 1.68147 5.52087 1.68147ZM20.3334 9.11839H11.6667V6.42178H20.3334V9.11839ZM1.66671 6.42178H10.3334V9.11839H1.66671V6.42178ZM3.02087 10.4665H10.3334V19.2516H3.02087V10.4665ZM19 19.2516H11.6667V10.4665H19V19.2516Z" fill="#3D3D3D"/>
</svg>
