<svg width="572" height="555" viewBox="0 0 572 555" fill="none" xmlns="http://www.w3.org/2000/svg">
<path fill-rule="evenodd" clip-rule="evenodd" d="M267 534C414.46 534 534 414.46 534 267C534 119.54 414.46 0 267 0C119.54 0 0 119.54 0 267C0 414.46 119.54 534 267 534Z" fill="#FFF0AE"/>
<path d="M528 288C528 432.146 411.146 549 267 549C122.854 549 6 432.146 6 288C6 143.854 122.854 27 267 27C411.146 27 528 143.854 528 288Z" fill="white" stroke="#3D3D3D" stroke-width="12"/>
<path fill-rule="evenodd" clip-rule="evenodd" d="M278.5 554C422.37 554 539 437.37 539 293.5C539 149.63 422.37 33 278.5 33C134.63 33 18 149.63 18 293.5C18 437.37 134.63 554 278.5 554Z" fill="#FF7171"/>
<mask id="mask0" mask-type="alpha" maskUnits="userSpaceOnUse" x="18" y="33" width="521" height="521">
<path fill-rule="evenodd" clip-rule="evenodd" d="M278.5 554C422.37 554 539 437.37 539 293.5C539 149.63 422.37 33 278.5 33C134.63 33 18 149.63 18 293.5C18 437.37 134.63 554 278.5 554Z" fill="white"/>
</mask>
<g mask="url(#mask0)">
</g>
<path fill-rule="evenodd" clip-rule="evenodd" d="M285 323C304.33 323 320 307.554 320 288.5C320 269.446 304.33 254 285 254C265.67 254 250 269.446 250 288.5C250 307.554 265.67 323 285 323Z" fill="white"/>
<path d="M240 194C240 218.853 219.853 239 195 239C170.147 239 150 218.853 150 194C150 169.147 170.147 149 195 149C219.853 149 240 169.147 240 194Z" stroke="#FFF0AE" stroke-width="8"/>
<path fill-rule="evenodd" clip-rule="evenodd" d="M164.574 203.448C180.401 214.496 185.31 236.193 175.356 253.435C165.401 270.676 144.157 277.274 126.675 269.09C127.548 269.7 128.455 270.277 129.394 270.819C147.353 281.188 170.427 274.846 180.93 256.653C191.434 238.461 185.389 215.307 167.43 204.938C166.491 204.396 165.538 203.9 164.574 203.448Z" fill="white"/>
<path fill-rule="evenodd" clip-rule="evenodd" d="M147 347.068C162.049 403.068 219.55 436.362 275.433 421.432C331.316 406.502 364.418 349.001 349.369 293L147 347.068Z" fill="#FFF0AE"/>
<mask id="path-9-inside-1" fill="white">
<path fill-rule="evenodd" clip-rule="evenodd" d="M162 347.068C176.976 403.068 234.198 436.362 289.81 421.432C345.421 406.502 378.363 349.001 363.387 293L162 347.068Z"/>
</mask>
<path fill-rule="evenodd" clip-rule="evenodd" d="M162 347.068C176.976 403.068 234.198 436.362 289.81 421.432C345.421 406.502 378.363 349.001 363.387 293L162 347.068Z" fill="#FFF0AE"/>
<path d="M162 347.068L159.666 338.375L150.983 340.707L153.306 349.393L162 347.068ZM289.81 421.432L292.143 430.124L292.143 430.124L289.81 421.432ZM363.387 293L372.081 290.675L369.754 281.972L361.053 284.308L363.387 293ZM153.306 349.393C169.552 410.143 231.673 446.359 292.143 430.124L287.476 412.74C236.724 426.366 184.4 395.993 170.694 344.742L153.306 349.393ZM292.143 430.124C352.607 413.891 388.326 351.419 372.081 290.675L354.692 295.325C368.4 346.582 338.235 399.112 287.476 412.74L292.143 430.124ZM361.053 284.308L159.666 338.375L164.334 355.76L365.72 301.692L361.053 284.308Z" fill="#3D3D3D" mask="url(#path-9-inside-1)"/>
<path d="M551.088 225.585L342.902 345.773C332.863 351.57 320.025 348.13 314.229 338.09C308.432 328.05 311.872 315.212 321.912 309.415L530.098 189.227C540.137 183.43 552.975 186.87 558.771 196.91C564.568 206.95 561.128 219.788 551.088 225.585Z" stroke="white" stroke-width="4"/>
<path fill-rule="evenodd" clip-rule="evenodd" d="M218.476 246.389L244.054 271.941L218.476 297.492L192.898 271.941L218.476 246.389Z" fill="white"/>
</svg>
