<svg width="33" height="33" viewBox="0 0 33 33" fill="none" xmlns="http://www.w3.org/2000/svg">
<path fill-rule="evenodd" clip-rule="evenodd" d="M4.71429 9.42857C7.31791 9.42857 9.42857 7.31791 9.42857 4.71429C9.42857 2.11066 7.31791 0 4.71429 0C2.11066 0 0 2.11066 0 4.71429C0 7.31791 2.11066 9.42857 4.71429 9.42857ZM4.71429 21.6857C7.31791 21.6857 9.42857 19.5751 9.42857 16.9714C9.42857 14.3678 7.31791 12.2571 4.71429 12.2571C2.11066 12.2571 0 14.3678 0 16.9714C0 19.5751 2.11066 21.6857 4.71429 21.6857ZM33 4.71429C33 7.31791 30.8893 9.42857 28.2857 9.42857C25.6821 9.42857 23.5714 7.31791 23.5714 4.71429C23.5714 2.11066 25.6821 0 28.2857 0C30.8893 0 33 2.11066 33 4.71429ZM16.0286 9.42857C18.6322 9.42857 20.7429 7.31791 20.7429 4.71429C20.7429 2.11066 18.6322 0 16.0286 0C13.4249 0 11.3143 2.11066 11.3143 4.71429C11.3143 7.31791 13.4249 9.42857 16.0286 9.42857ZM21.6857 16.9714C21.6857 19.5751 19.5751 21.6857 16.9714 21.6857C14.3678 21.6857 12.2571 19.5751 12.2571 16.9714C12.2571 14.3678 14.3678 12.2571 16.9714 12.2571C19.5751 12.2571 21.6857 14.3678 21.6857 16.9714ZM4.71429 33C7.31791 33 9.42857 30.8893 9.42857 28.2857C9.42857 25.6821 7.31791 23.5714 4.71429 23.5714C2.11066 23.5714 0 25.6821 0 28.2857C0 30.8893 2.11066 33 4.71429 33ZM33 28.2857C33 30.8893 30.8893 33 28.2857 33C25.6821 33 23.5714 30.8893 23.5714 28.2857C23.5714 25.6821 25.6821 23.5714 28.2857 23.5714C30.8893 23.5714 33 25.6821 33 28.2857Z" fill="#3D3D3D"/>
</svg>
